<svg class="ioxua-logo" width="139" height="137" viewBox="0 0 139 137" fill="none" xmlns="http://www.w3.org/2000/svg">
    <title>Logotipo de Yehoshua. Uma cabeça em preto e branco com cabelo cacheado</title>
    <path d="M36.8199 67.208C35.8847 96.6528 40.631 139.684 78.1394 130.732C119.569 116.746 95.8912 80.8904 97.772 66.2656" stroke="black" stroke-width="9.26042" />
    <path d="M66.0964 77.0359C66.949 79.0873 72.4574 83.6378 72.4574 83.6378C77.4667 88.0153 75.3142 93.0222 65.7725 97.9833" stroke="black" stroke-width="7.40833" />
    <path d="M40.4783 94.7247C40.4783 94.7247 1.98039 87.9352 5.27956 55.1404C6.42034 42.3926 11.7889 27.8219 29.3893 31.1548C59.8231 43.9166 44.5914 53.3125 44.5914 53.3125C44.5914 53.3125 32.1379 61.6663 36.6926 35.0242C43.6242 9.68586 68.3598 4.70963 71.566 5.38831C78.2762 4.64826 88.0348 11.7471 90.2941 16.4559C101.122 39.023 81.0225 48.5506 76.4467 44.4653C65.9424 34.0938 92.611 13.9681 121.499 26.9263C134.93 33.8128 130.012 54.3927 115.788 60.2028C108.334 63.2473 97.2384 57.4872 99.5576 51.9075C103.957 41.3228 128.747 49.1059 134.136 75.8578C136.577 89.8556 112.543 91.2118 102.813 91.119" stroke="black" stroke-width="9.26042" />
    <style>
        @media (prefers-color-scheme: dark) {
            .ioxua-logo path {
                stroke: white;
            }
        }
    </style>
</svg>
